<?xml version="1.0" encoding="utf-8"?>
<!-- Generator: Adobe Illustrator 25.4.1, SVG Export Plug-In . SVG Version: 6.00 Build 0)  -->
<svg version="1.1" id="Layer_1" xmlns="http://www.w3.org/2000/svg" xmlns:xlink="http://www.w3.org/1999/xlink" x="0px" y="0px"
	 viewBox="0 0 105 23" style="enable-background:new 0 0 105 23;" xml:space="preserve">
<style type="text/css">
	.st0{fill:#212121;}
	.st1{fill:#C1C0C0;}
</style>
<path id="Path_3" class="st0" d="M80.2,22.94h-3.59V6.93h3.59V22.94z"/>
<path id="Path_6" class="st0" d="M8.65,10.21c-1.12-0.01-2.2,0.45-2.96,1.27c-0.85,0.94-1.28,2.18-1.21,3.45
	c-0.07,1.28,0.37,2.54,1.22,3.49c0.78,0.83,1.87,1.3,3.01,1.28c0.93,0.04,1.84-0.26,2.55-0.86c0.6-0.52,1.03-1.19,1.27-1.95
	l3.17,1.16c-0.44,1.38-1.28,2.6-2.42,3.49c-1.3,1.01-2.92,1.53-4.56,1.46c-2.11,0.05-4.14-0.79-5.59-2.31
	c-2.99-3.25-3.01-8.25-0.03-11.52c1.44-1.5,3.45-2.33,5.54-2.28c1.67-0.07,3.31,0.45,4.63,1.46c1.13,0.89,1.95,2.13,2.32,3.52
	l-3.24,1.18c-0.19-0.77-0.61-1.47-1.2-2C10.45,10.46,9.56,10.16,8.65,10.21z"/>
<path id="Path_7" class="st0" d="M21.65,18.38c1.68,1.69,4.41,1.71,6.1,0.03c0.01-0.01,0.01-0.01,0.02-0.02
	c0.88-0.96,1.33-2.23,1.25-3.53c0.08-1.28-0.38-2.54-1.25-3.48c-1.7-1.67-4.42-1.67-6.12,0c-0.88,0.94-1.33,2.2-1.25,3.48
	C20.32,16.15,20.77,17.42,21.65,18.38z M24.71,6.89c4.27,0.14,7.61,3.72,7.47,7.99c-0.14,4.27-3.72,7.61-7.99,7.47
	c-4.27-0.14-7.61-3.72-7.47-7.99c0.07-1.96,0.88-3.83,2.27-5.22C20.5,7.64,22.57,6.82,24.71,6.89z"/>
<path id="Path_1" class="st0" d="M42.08,6.99v3.66c-0.39-0.06-0.79-0.09-1.18-0.1c-2.73,0-4.08,1.34-4.08,4.3v8.04h-3.62V6.93h3.52
	v2.56c0.35-0.81,0.95-1.48,1.71-1.91c0.81-0.47,1.74-0.71,2.69-0.7C41.44,6.89,41.77,6.92,42.08,6.99z"/>
<path id="Path_8" class="st0" d="M47.02,13.23h8.05c-0.03-0.91-0.42-1.77-1.1-2.38c-0.82-0.69-1.88-1.03-2.95-0.96
	c-1.04-0.05-2.05,0.31-2.83,1C47.52,11.48,47.09,12.32,47.02,13.23z M55.51,17.15l3.3,0.96c-0.49,1.4-1.41,2.6-2.64,3.42
	c-1.41,0.94-3.08,1.41-4.78,1.35c-2.19,0.05-4.31-0.73-5.94-2.2c-1.65-1.5-2.54-3.66-2.45-5.88c-0.07-2.15,0.8-4.23,2.38-5.69
	c3.26-2.93,8.19-2.97,11.5-0.11c1.46,1.53,2.23,3.59,2.13,5.7c0.03,0.38,0,0.77-0.1,1.14H46.92c0.03,1.09,0.53,2.11,1.36,2.81
	c0.87,0.74,1.98,1.14,3.12,1.11C53.21,19.97,54.92,18.88,55.51,17.15L55.51,17.15z"/>
<path id="Path_2" class="st0" d="M63.45,22.94h-3.67V-0.04h3.7v9.25c0.47-0.71,1.14-1.27,1.92-1.61c0.96-0.45,2-0.68,3.06-0.65
	c2.04-0.11,4.02,0.71,5.38,2.23c2.61,3.39,2.57,8.13-0.1,11.48c-1.38,1.52-3.36,2.34-5.41,2.25c-1.94,0.16-3.82-0.76-4.88-2.39
	L63.45,22.94z M70.78,18.39c1.57-2.06,1.58-4.92,0.01-6.98c-1.7-1.69-4.45-1.69-6.15,0c-0.84,0.95-1.27,2.21-1.2,3.48
	c-0.06,1.28,0.37,2.53,1.2,3.5c1.63,1.7,4.34,1.75,6.03,0.11C70.72,18.46,70.75,18.43,70.78,18.39L70.78,18.39z"/>
<path id="Path_4" class="st0" d="M97.17,22.93H81.34v-3.14l10-9.68H81.17V6.93h15.97v3.05l-10.13,9.77h10.16L97.17,22.93
	L97.17,22.93z"/>
<path id="Path_5" class="st1" d="M98.69,22.16c-0.5-0.49-0.78-1.16-0.77-1.86c-0.01-0.7,0.26-1.38,0.77-1.88
	c0.48-0.51,1.16-0.8,1.86-0.78c1.47,0,2.66,1.19,2.66,2.66c0.02,0.7-0.27,1.38-0.78,1.86c-0.5,0.5-1.17,0.78-1.88,0.77
	C99.85,22.94,99.17,22.66,98.69,22.16z"/>
</svg>
